<svg xmlns="http://www.w3.org/2000/svg" viewBox="0 0 256 256">
  <!-- Controller Body -->
  <path fill="#2D2D2D" d="M220,64H180a40,40,0,0,0-26,9.6L128,96,102,73.6A40,40,0,0,0,76,64H36A36,36,0,0,0,0,100v16a60,60,0,0,0,60,60,32,32,0,0,0,32-32V128l36,24,36-24v16a32,32,0,0,0,32,32,60,60,0,0,0,60-60V100A36,36,0,0,0,220,64Z" transform="scale(1 0.8) translate(0 15)" />
  <!-- A simplified robust controller shape -->
  <path fill="#333333" d="M196,48c26,0,44,14,44,40v20c0,25-15,44-38,44-12,0-22-10-22-22v-8l-40,16H116L76,122v8c0,12-10,22-22,22-23,0-38-19-38-44V88C16,62,34,48,60,48h40l28,16,28-16h40Z"/>
  
  <!-- D-Pad (Left) -->
  <g fill="#D1D5DB">
    <rect x="52" y="80" width="16" height="48" rx="4"/>
    <rect x="36" y="96" width="48" height="16" rx="4"/>
  </g>
  
  <!-- Buttons (Right) -->
  <!-- Top: Green -->
  <circle cx="200" cy="80" r="10" fill="#4ADE80" />
  <!-- Bottom: Orange/Yellow -->
  <circle cx="200" cy="120" r="10" fill="#FBBF24" />
  <!-- Left: Red -->
  <circle cx="180" cy="100" r="10" fill="#F87171" />
  <!-- Right: Blue -->
  <circle cx="220" cy="100" r="10" fill="#60A5FA" />
</svg>
